<?xml version="1.0" standalone="no"?>
<!DOCTYPE svg PUBLIC "-//W3C//DTD SVG 20010904//EN"
 "http://www.w3.org/TR/2001/REC-SVG-20010904/DTD/svg10.dtd">
<svg version="1.0" xmlns="http://www.w3.org/2000/svg"
 width="105.000000pt" height="105.000000pt" viewBox="0 0 105.000000 105.000000"
 preserveAspectRatio="xMidYMid meet">
<metadata>
Created by potrace 1.11, written by Peter Selinger 2001-2013
</metadata>
<g transform="translate(0.000000,105.000000) scale(0.100000,-0.100000)"
fill="#000000" stroke="none">
<path d="M151 555 l-1 -385 75 0 75 0 1 293 c0 160 2 288 4 282 2 -5 36 -137
76 -293 l72 -282 77 0 78 0 46 188 c25 103 59 234 75 292 l29 105 1 -292 1
-293 73 0 72 0 0 383 0 382 -119 0 -120 0 -28 -105 c-16 -58 -45 -172 -66
-255 -21 -82 -41 -145 -44 -140 -3 6 -22 75 -42 155 -20 80 -49 190 -64 245
l-27 100 -122 3 -122 3 0 -386z"/>
</g>
</svg>
